# Blender 3.3.1
# www.blender.org
mtllib stanza.mtl
o Cube
v 8.962249 8.962249 0.500000
v 10.000000 10.000000 -0.500000
v 8.962249 -8.962249 0.500000
v 10.000000 -10.000000 -0.500000
v -8.962249 8.962249 0.500000
v -10.000000 10.000000 -0.500000
v -8.962249 -8.962249 0.500000
v -10.000000 -10.000000 -0.500000
v 10.000000 -10.000000 0.500000
v -10.000000 -10.000000 0.500000
v 10.000000 10.000000 0.500000
v -10.000000 10.000000 0.500000
v 10.000000 10.000000 11.868299
v 10.000000 -10.000000 11.868299
v -10.000000 -10.000000 11.868299
v -10.000000 10.000000 11.868299
v 8.962249 8.962249 11.868299
v 8.962249 -8.962249 11.868299
v -8.962249 -8.962249 11.868299
v -8.962249 8.962249 11.868299
vn -0.0000 -0.0000 1.0000
vn -0.0000 -1.0000 -0.0000
vn -1.0000 -0.0000 -0.0000
vn -0.0000 -0.0000 -1.0000
vn 1.0000 -0.0000 -0.0000
vn -0.0000 1.0000 -0.0000
vn 0.7071 -0.7071 -0.0000
vn -0.7071 -0.7071 -0.0000
vt 0.637972 0.512972
vt 0.375000 0.500000
vt 0.637972 0.737028
vt 0.375000 0.750000
vt 0.862028 0.512972
vt 0.125000 0.500000
vt 0.375000 0.250000
vt 0.862028 0.737028
vt 0.375000 1.000000
vt 0.375000 0.000000
vt 0.125000 0.750000
vt 0.625000 0.750000
vt 0.625000 1.000000
vt 0.875000 0.750000
vt 0.625000 0.000000
vt 0.625000 0.500000
vt 0.625000 0.250000
vt 0.625000 0.500000
vt 0.625000 0.750000
vt 0.875000 0.750000
vt 0.625000 0.000000
vt 0.875000 0.500000
vt 0.625000 0.250000
vt 0.637972 0.512972
vt 0.637972 0.737028
vt 0.862028 0.737028
vt 0.862028 0.512972
s 0
usemtl Material
f 1/1/1 5/5/1 7/8/1 3/3/1
f 4/4/2 9/12/2 10/13/2 8/9/2
f 8/10/3 10/15/3 12/17/3 6/7/3
f 6/6/4 2/2/4 4/4/4 8/11/4
f 2/2/5 11/16/5 9/12/5 4/4/5
f 6/7/6 12/17/6 11/16/6 2/2/6
f 3/3/1 7/8/1 10/14/1 9/12/1
f 1/1/3 3/3/3 18/25/3 17/24/3
f 5/5/2 1/1/2 17/24/2 20/27/2
f 10/14/7 7/8/7 19/26/7 15/20/7
f 17/24/1 18/25/1 14/19/1 13/18/1
f 19/26/1 20/27/1 16/22/1 15/20/1
f 20/27/1 17/24/1 13/18/1 16/22/1
f 12/17/3 10/15/3 15/21/3 16/23/3
f 9/12/5 11/16/5 13/18/5 14/19/5
f 3/3/8 9/12/8 14/19/8 18/25/8
f 7/8/5 5/5/5 20/27/5 19/26/5
f 11/16/6 12/17/6 16/23/6 13/18/6
