# Blender v3.3.1 OBJ File: 'stanza.blend'
# www.blender.org
mtllib pareti.mtl
o Cube
v 12.944702 13.007437 0.483786
v 14.443586 14.513585 -0.483786
v 12.944702 -13.007437 0.483786
v 14.443586 -14.513585 -0.483786
v -12.944702 13.007437 0.483786
v -14.443586 14.513585 -0.483786
v -12.944702 -13.007437 0.483786
v -14.443586 -14.513585 -0.483786
v 14.443586 -14.513585 0.483786
v -14.443586 -14.513585 0.483786
v 14.443586 14.513585 0.483786
v -14.443586 14.513585 0.483786
v 14.443586 14.513585 11.483438
v 14.443586 -14.513585 11.483438
v -14.443586 -14.513585 11.483438
v -14.443586 14.513585 11.483438
v 12.944702 13.007437 11.483438
v 12.944702 -13.007437 11.483438
v -12.944702 -13.007437 11.483438
v -12.944702 13.007437 11.483438
v -17.502068 6.041963 1.931899
v 20.541042 4.321877 6.866414
vt 0.637972 0.512972
vt 0.862028 0.512972
vt 0.862028 0.737028
vt 0.637972 0.737028
vt 0.375000 0.750000
vt 0.625000 0.750000
vt 0.625000 1.000000
vt 0.375000 1.000000
vt 0.375000 0.000000
vt 0.625000 0.000000
vt 0.625000 0.250000
vt 0.375000 0.250000
vt 0.125000 0.500000
vt 0.375000 0.500000
vt 0.125000 0.750000
vt 0.625000 0.500000
vt 0.875000 0.750000
vt 0.637972 0.737028
vt 0.637972 0.512972
vt 0.862028 0.512972
vt 0.862028 0.737028
vt 0.875000 0.750000
vt 0.625000 0.750000
vt 0.625000 0.500000
vt 0.875000 0.500000
vt 0.625000 0.000000
vt 0.625000 0.250000
vn 0.0000 0.0000 1.0000
vn 0.0000 -1.0000 0.0000
vn -1.0000 0.0000 0.0000
vn 0.0000 0.0000 -1.0000
vn 1.0000 0.0000 0.0000
vn 0.0000 1.0000 0.0000
vn 0.7088 -0.7054 0.0000
vn -0.7088 -0.7054 0.0000
usemtl Material
s off
f 1/1/1 5/2/1 7/3/1 3/4/1
f 4/5/2 9/6/2 10/7/2 8/8/2
f 8/9/3 10/10/3 12/11/3 6/12/3
f 6/13/4 2/14/4 4/5/4 8/15/4
f 2/14/5 11/16/5 9/6/5 4/5/5
f 6/12/6 12/11/6 11/16/6 2/14/6
f 3/4/1 7/3/1 10/17/1 9/6/1
f 1/1/3 3/4/3 18/18/3 17/19/3
f 5/2/2 1/1/2 17/19/2 20/20/2
f 10/17/7 7/3/7 19/21/7 15/22/7
f 17/19/1 18/18/1 14/23/1 13/24/1
f 19/21/1 20/20/1 16/25/1 15/22/1
f 20/20/1 17/19/1 13/24/1 16/25/1
f 12/11/3 10/10/3 15/26/3 16/27/3
f 9/6/5 11/16/5 13/24/5 14/23/5
f 3/4/8 9/6/8 14/23/8 18/18/8
f 7/3/5 5/2/5 20/20/5 19/21/5
f 11/16/6 12/11/6 16/27/6 13/24/6
